<svg width="13" height="12" viewBox="0 0 13 12" fill="none" xmlns="http://www.w3.org/2000/svg">
<path d="M1.21935 4.8089C0.581203 5.81382 1.49566 6.49874 1.92988 6.5844V9.48121H11.0247V6.5844C11.8584 6.5844 12.0311 5.81382 11.9957 5.32282C11.0769 3.88827 10.1563 4.65312 9.7931 5.32282V7.82253H3.35094V5.18269C2.68778 3.83706 1.65356 4.37282 1.21935 4.8089Z" stroke="black" stroke-width="0.5"/>
<path d="M10.622 9.505V10.9768H9.91147L9.36673 9.505" stroke="black" stroke-width="0.5"/>
<path d="M3.63504 9.505L3.16135 11.0002H2.56924V9.505" stroke="black" stroke-width="0.5"/>
<path d="M2.37991 4.31749V3.21949C2.44306 2.61987 3.01465 1.33653 4.79571 1.00012L8.67995 1.04685C9.27996 1.14029 10.5273 1.70565 10.7168 3.21949V4.45766" stroke="black" stroke-width="0.5"/>
</svg>
